<svg xmlns="http://www.w3.org/2000/svg" xmlns:xlink="http://www.w3.org/1999/xlink" xmlns:inkscape="http://www.inkscape.org/namespaces/inkscape" version="1.1" width="198" height="165" viewBox="0 0 198 165">
<defs>
<path id="font_1_1" d="M.6589966 .23046875C.6759949 .23046875 .69400027 .23046875 .69400027 .25045777 .69400027 .27046205 .6759949 .27046205 .6589966 .27046205H.117996219C.100997928 .27046205 .08299255 .27046205 .08299255 .25045777 .08299255 .23046875 .100997928 .23046875 .117996219 .23046875H.6589966Z"/>
<path id="font_2_3" d="M.2939911 .64004519C.2939911 .66400149 .2939911 .6660156 .2709961 .6660156 .20899964 .60227969 .12098694 .60227969 .08898926 .60227969V.57128909C.10899353 .57128909 .16799927 .57128909 .21998596 .5972748V.07902527C.21998596 .042999269 .21699524 .0309906 .1269989 .0309906H.09498596V0C.12998963 .0029907227 .21699524 .0029907227 .25698854 .0029907227 .29699708 .0029907227 .38398744 .0029907227 .4189911 0V.0309906H.3869934C.29699708 .0309906 .2939911 .041992189 .2939911 .07902527V.64004519Z"/>
<clipPath id="clip_3">
<path transform="matrix(1.00003,0,0,-1.00005,2.0964967,163.20134)" d="M0 0H194.26912V161.39636H0Z"/>
</clipPath>
<path id="font_4_2" d="M.36698915 .3996582H.45298768C.47299195 .3996582 .48298646 .3996582 .48298646 .41966249 .48298646 .43066407 .47299195 .43066407 .45599366 .43066407H.37298585L.3939972 .5449524C.397995 .5660095 .4119873 .6370239 .41799928 .6490326 .4269867 .66804507 .44400025 .68307498 .46499635 .68307498 .46899415 .68307498 .49499513 .68307498 .5139923 .66503909 .46998597 .661026 .45999146 .6260376 .45999146 .6110382 .45999146 .58802798 .47799684 .57603457 .49699403 .57603457 .522995 .57603457 .5519867 .5980377 .5519867 .6360321 .5519867 .6820679 .5059967 .7050781 .46499635 .7050781 .43099977 .7050781 .36799623 .68707278 .33799745 .58802798 .33198548 .56700137 .32899476 .5569763 .30499269 .43066407H.23599243C.21699524 .43066407 .20599365 .43066407 .20599365 .4116516 .20599365 .3996582 .21499634 .3996582 .23399353 .3996582H.2999878L.22499085 .0048828127C.20698548-.09207153 .18998719-.18309021 .13798523-.18309021 .13398743-.18309021 .10899353-.18309021 .08999634-.16506958 .13598633-.1620636 .14498902-.12606812 .14498902-.111068729 .14498902-.08807373 .1269989-.07606506 .10798645-.07606506 .08198547-.07606506 .052993776-.09806824 .052993776-.13606262 .052993776-.18109131 .09700012-.20507813 .13798523-.20507813 .19299317-.20507813 .23298645-.14607239 .25099183-.108062747 .2829895-.04508972 .30599977 .07583618 .30699159 .082839969L.36698915 .3996582Z"/>
<path id="font_2_1" d="M.33099366-.2400055C.33099366-.23701477 .33099366-.23500061 .31399537-.21800232 .18899536-.0920105 .15699768 .09700012 .15699768 .25 .15699768 .42399598 .19499207 .59799197 .31799317 .72299197 .33099366 .73498538 .33099366 .7369995 .33099366 .73999026 .33099366 .746994 .32699586 .75 .32099916 .75 .31098939 .75 .22099304 .6819916 .1619873 .5549927 .11099243 .44499208 .09899902 .33399964 .09899902 .25 .09899902 .17199707 .10998535 .050994874 .16499329-.06201172 .22499085-.18501282 .31098939-.25 .32099916-.25 .32699586-.25 .33099366-.24700928 .33099366-.2400055Z"/>
<path id="font_4_3" d="M.33399964 .30233766C.33999635 .32835389 .36299134 .42037965 .43299867 .42037965 .43798829 .42037965 .46199037 .42037965 .48298646 .40734864 .45498658 .402359 .43499757 .37734986 .43499757 .35334779 .43499757 .33735658 .44599916 .31835938 .47299195 .31835938 .49499513 .31835938 .5269928 .3363495 .5269928 .37635804 .5269928 .42837525 .46798707 .4423828 .43399049 .4423828 .37599183 .4423828 .34098817 .38935853 .32899476 .36634828 .3039856 .43237306 .25 .4423828 .22099304 .4423828 .116989139 .4423828 .05999756 .3133545 .05999756 .28834535 .05999756 .27833558 .069992069 .27833558 .07199097 .27833558 .07998657 .27833558 .08299255 .28033448 .084991458 .28933717 .11898804 .39535523 .18499756 .42037965 .21899414 .42037965 .23799134 .42037965 .272995 .4113617 .272995 .35334779 .272995 .32235719 .2559967 .25532533 .21899414 .11528015 .20298767 .053268434 .16799927 .011245728 .12399292 .011245728 .117996219 .011245728 .09498596 .011245728 .07398987 .024276734 .09899902 .029266358 .12098694 .05027771 .12098694 .07827759 .12098694 .105270389 .09899902 .11328125 .083999637 .11328125 .053985597 .11328125 .0289917 .08728027 .0289917 .055267335 .0289917 .009246826 .07899475-.0107421879 .12298584-.0107421879 .18899536-.0107421879 .22499085 .059280397 .22799683 .0652771 .23999024 .028274537 .27598573-.0107421879 .33599855-.0107421879 .43899537-.0107421879 .49598695 .118270877 .49598695 .14328003 .49598695 .1532898 .4869995 .1532898 .48399354 .1532898 .47499085 .1532898 .47299195 .14929199 .47099305 .14228821 .43798829 .03527832 .36999513 .011245728 .33799745 .011245728 .29899598 .011245728 .2829895 .043273927 .2829895 .07727051 .2829895 .09927368 .2889862 .121276859 .2999878 .16529846L.33399964 .30233766Z"/>
<path id="font_2_2" d="M.2889862 .25C.2889862 .32798768 .27799989 .44898988 .22299195 .56199648 .16299439 .68499758 .07699585 .75 .066986087 .75 .06098938 .75 .056991579 .74598696 .056991579 .73999026 .056991579 .7369995 .056991579 .73498538 .07598877 .71699526 .17399597 .6179962 .23098755 .45899964 .23098755 .25 .23098755 .07899475 .19400025-.09700012 .069992069-.2230072 .056991579-.23500061 .056991579-.23701477 .056991579-.2400055 .056991579-.2460022 .06098938-.25 .066986087-.25 .07699585-.25 .16699219-.18200684 .22599793-.055007936 .2769928 .054992677 .2889862 .16600037 .2889862 .25Z"/>
<path id="font_4_1" d="M.4269867 .6066284C.43399049 .63461306 .43798829 .64060977 .44999696 .6436157 .45899964 .6456146 .49198915 .6456146 .5130005 .6456146 .6139984 .6456146 .6589966 .6416168 .6589966 .56365969 .6589966 .54867556 .6549988 .50968936 .651001 .4837036 .6499939 .4797058 .647995 .4677124 .647995 .46472169 .647995 .45872499 .651001 .45173646 .6599884 .45173646 .67099 .45173646 .6729889 .45973207 .6749878 .4747162L.70199587 .64860537C.7029877 .65260317 .70399478 .6626129 .70399478 .66560366 .70399478 .6766052 .69400027 .6766052 .6769867 .6766052H.12199402C.09799194 .6766052 .09700012 .6756134 .08999634 .6566162L.02999878 .4807129C.0289917 .478714 .023986817 .46472169 .023986817 .46272279 .023986817 .45672608 .0289917 .45173646 .035995485 .45173646 .04598999 .45173646 .04699707 .45672608 .052993776 .4727173 .10699463 .6276245 .1329956 .6456146 .2809906 .6456146H.31999208C.34799195 .6456146 .34799195 .6416168 .34799195 .6336212 .34799195 .6276245 .34498597 .6156311 .34399415 .6126251L.20999146 .07896423C.20098877 .041992189 .19799805 .0309906 .09098816 .0309906 .054992677 .0309906 .04899597 .0309906 .04899597 .011993408 .04899597 0 .05999756 0 .06599426 0 .09298706 0 .12098694 .0019989014 .147995 .0019989014 .17599488 .0019989014 .20498657 .0029907227 .23298645 .0029907227 .26098634 .0029907227 .2889862 .0019989014 .31599427 .0019989014 .34498597 .0019989014 .375 0 .40299989 0 .41299439 0 .4249878 0 .4249878 .019989014 .4249878 .0309906 .4169922 .0309906 .3909912 .0309906 .3659973 .0309906 .35299684 .0309906 .32699586 .032989503 .2979889 .035995485 .2899933 .038986207 .2899933 .054977418 .2899933 .05596924 .2899933 .06097412 .2939911 .07595825L.4269867 .6066284Z"/>
<path id="font_5_1" d="M.33499146 .63612368C.33499146 .6630554 .33299256 .6640625 .30499269 .6640625 .24099732 .6014404 .1499939 .6004486 .10899353 .6004486V.5644531C.1329956 .5644531 .19898987 .5644531 .2539978 .592453V.08203125C.2539978 .04899597 .2539978 .035995485 .1539917 .035995485H.115997318V0C.13398743 .0009918213 .25698854 .0039978029 .2939911 .0039978029 .32499696 .0039978029 .45098878 .0009918213 .47299195 0V.035995485H.43499757C.33499146 .035995485 .33499146 .04899597 .33499146 .08203125V.63612368Z"/>
<path id="font_5_2" d="M.272995 .33428956C.35099793 .33428956 .40699769 .2803192 .40699769 .1733551 .40699769 .04940796 .33499146 .012466431 .2769928 .012466431 .23699951 .012466431 .14898682 .0234375 .10699463 .082351688 .1539917 .084350589 .16499329 .11735535 .16499329 .13835144 .16499329 .17034912 .14099121 .19335938 .10998535 .19335938 .08198547 .19335938 .053985597 .17634583 .053985597 .13534546 .053985597 .041412355 .1579895-.01953125 .2789917-.01953125 .41799928-.01953125 .5139923 .07336426 .5139923 .1733551 .5139923 .2513275 .44999696 .32929994 .33999635 .35229493 .44499208 .39024354 .48298646 .4650879 .48298646 .5260773 .48298646 .60505679 .3919983 .6640625 .2809906 .6640625 .16999817 .6640625 .084991458 .61006167 .084991458 .5300751 .084991458 .49606324 .10699463 .47706605 .13699341 .47706605 .16799927 .47706605 .18798828 .5000763 .18798828 .5280762 .18798828 .5570679 .16799927 .57806399 .13699341 .5800781 .17199707 .62405398 .24099732 .63505557 .27799989 .63505557 .32299806 .63505557 .38598634 .6130676 .38598634 .5260773 .38598634 .48406983 .37199403 .43814088 .34599305 .4072113 .31298829 .36927796 .2849884 .3672943 .23498535 .36428834 .20999146 .3623047 .20799256 .3623047 .20298767 .3612976 .20098877 .3612976 .19299317 .3592987 .19299317 .34829713 .19299317 .33428956 .20199585 .33428956 .21899414 .33428956H.272995Z"/>
</defs>
<path transform="matrix(1.00003,0,0,-1.00005,2.0964967,163.20134)" stroke-width=".3985" stroke-linecap="butt" stroke-miterlimit="10" stroke-linejoin="miter" fill="none" stroke="#bfbfbf" d="M0 0V161.39636M12.14182 0V161.39636M24.28363 0V161.39636M36.42545 0V161.39636M48.56728 0V161.39636M60.70909 0V161.39636M72.8509 0V161.39636M84.99274 0V161.39636M97.13455 0V161.39636M109.27637 0V161.39636M121.4182 0V161.39636M133.56002 0V161.39636M145.70183 0V161.39636M157.84366 0V161.39636M169.98548 0V161.39636M182.12729 0V161.39636M194.26912 0V161.39636"/>
<path transform="matrix(1.00003,0,0,-1.00005,2.0964967,163.20134)" stroke-width=".3985" stroke-linecap="butt" stroke-miterlimit="10" stroke-linejoin="miter" fill="none" stroke="#bfbfbf" d="M48.56728 0V161.39636M145.70183 0V161.39636"/>
<path transform="matrix(1.00003,0,0,-1.00005,2.0964967,163.20134)" stroke-width=".3985" stroke-linecap="butt" stroke-miterlimit="10" stroke-linejoin="miter" fill="none" stroke="#bfbfbf" d="M0 0H194.26912M0 10.08727H194.26912M0 20.17455H194.26912M0 30.26181H194.26912M0 40.34909H194.26912M0 50.43636H194.26912M0 60.52364H194.26912M0 70.6109H194.26912M0 80.69818H194.26912M0 90.78545H194.26912M0 100.87273H194.26912M0 110.95999H194.26912M0 121.04727H194.26912M0 131.13454H194.26912M0 141.22182H194.26912M0 151.30908H194.26912M0 161.39636H194.26912"/>
<path transform="matrix(1.00003,0,0,-1.00005,2.0964967,163.20134)" stroke-width=".3985" stroke-linecap="butt" stroke-miterlimit="10" stroke-linejoin="miter" fill="none" stroke="#bfbfbf" d="M0 40.34909H194.26912M0 121.04727H194.26912"/>
<path transform="matrix(1.00003,0,0,-1.00005,2.0964967,163.20134)" stroke-width=".19925" stroke-linecap="butt" stroke-miterlimit="10" stroke-linejoin="miter" fill="none" stroke="#7f807f" d="M0 79.28072V82.11563M12.14182 79.28072V82.11563M24.28363 79.28072V82.11563M36.42545 79.28072V82.11563M48.56728 79.28072V82.11563M60.70909 79.28072V82.11563M72.8509 79.28072V82.11563M84.99274 79.28072V82.11563M97.13455 79.28072V82.11563M109.27637 79.28072V82.11563M121.4182 79.28072V82.11563M133.56002 79.28072V82.11563M145.70183 79.28072V82.11563M157.84366 79.28072V82.11563M169.98548 79.28072V82.11563M182.12729 79.28072V82.11563M194.26912 79.28072V82.11563"/>
<path transform="matrix(1.00003,0,0,-1.00005,2.0964967,163.20134)" stroke-width=".19925" stroke-linecap="butt" stroke-miterlimit="10" stroke-linejoin="miter" fill="none" stroke="#7f807f" d="M48.56728 78.57219V82.82414M145.70183 78.57219V82.82414"/>
<path transform="matrix(1.00003,0,0,-1.00005,2.0964967,163.20134)" stroke-width=".19925" stroke-linecap="butt" stroke-miterlimit="10" stroke-linejoin="miter" fill="none" stroke="#7f807f" d="M95.71715 0H98.55196M95.71715 10.08727H98.55196M95.71715 20.17455H98.55196M95.71715 30.26181H98.55196M95.71715 40.34909H98.55196M95.71715 50.43636H98.55196M95.71715 60.52364H98.55196M95.71715 70.6109H98.55196M95.71715 80.69818H98.55196M95.71715 90.78545H98.55196M95.71715 100.87273H98.55196M95.71715 110.95999H98.55196M95.71715 121.04727H98.55196M95.71715 131.13454H98.55196M95.71715 141.22182H98.55196M95.71715 151.30908H98.55196M95.71715 161.39636H98.55196"/>
<path transform="matrix(1.00003,0,0,-1.00005,2.0964967,163.20134)" stroke-width=".19925" stroke-linecap="butt" stroke-miterlimit="10" stroke-linejoin="miter" fill="none" stroke="#7f807f" d="M95.00867 40.34909H99.26042M95.00867 121.04727H99.26042"/>
<path transform="matrix(1.00003,0,0,-1.00005,2.0964967,163.20134)" stroke-width=".3985" stroke-linecap="butt" stroke-miterlimit="10" stroke-linejoin="miter" fill="none" stroke="#000000" d="M0 80.69818H192.2766"/>
<path transform="matrix(1.00003,0,0,-1.00005,194.37888,82.49913)" d="M1.99252 0-1.19551 1.59401 0 0-1.19551-1.59401"/>
<path transform="matrix(1.00003,0,0,-1.00005,2.0964967,163.20134)" stroke-width=".3985" stroke-linecap="butt" stroke-miterlimit="10" stroke-linejoin="miter" fill="none" stroke="#000000" d="M97.13455 0V159.40384"/>
<path transform="matrix(0,-1.00005,-1.00003,-0,99.23396,3.7895356)" d="M1.99252 0-1.19551 1.59401 0 0-1.19551-1.59401"/>
<use data-text="&#x2212;" xlink:href="#font_1_1" transform="matrix(9.962899,0,0,-9.963098,44.299764,94.56591)"/>
<use data-text="1" xlink:href="#font_2_3" transform="matrix(9.962899,0,0,-9.963098,52.048994,94.56591)"/>
<use data-text="1" xlink:href="#font_2_3" transform="matrix(9.962899,0,0,-9.963098,145.3118,94.56591)"/>
<use data-text="&#x2212;" xlink:href="#font_1_1" transform="matrix(9.962899,0,0,-9.963098,80.857868,125.64546)"/>
<use data-text="1" xlink:href="#font_2_3" transform="matrix(9.962899,0,0,-9.963098,88.60709,125.64546)"/>
<use data-text="1" xlink:href="#font_2_3" transform="matrix(9.962899,0,0,-9.963098,88.6061,45.35846)"/>
<g clip-path="url(#clip_3)">
<path transform="matrix(1.00003,0,0,-1.00005,2.0964967,163.20134)" stroke-width="1.59404" stroke-linecap="butt" stroke-miterlimit="10" stroke-linejoin="miter" fill="none" stroke="#0000ff" d="M0 44.01117C0 44.01117 5.84831 42.21472 8.0945 41.73265 10.34068 41.25058 13.94283 40.71437 16.18901 40.5367 18.4352 40.35901 22.03734 40.3207 24.28352 40.45197 26.52971 40.58324 30.13185 41.04605 32.37804 41.48288 34.62422 41.91971 38.22635 42.87 40.47253 43.6004 42.71872 44.33081 46.32088 45.7435 48.56706 46.74724 50.81325 47.75096 54.41539 49.58559 56.66156 50.8346 58.90775 52.08359 62.50989 54.28946 64.75609 55.74911 67.00229 57.20876 70.60443 59.72485 72.85062 61.35481 75.09679 62.98477 78.69893 65.74156 80.94511 67.49675 83.1913 69.25194 86.79344 72.17339 89.03963 74.00507 91.28581 75.83673 94.88794 78.84097 97.13414 80.69818 99.38034 82.55537 102.98248 85.55879 105.22867 87.39047 107.47485 89.22214 111.07698 92.14433 113.32317 93.89958 115.56935 95.65483 119.17151 98.41115 121.4177 100.0411 123.66388 101.67107 127.26602 104.18762 129.51219 105.64722 131.75838 107.10683 135.36052 109.31201 137.60672 110.56094 139.85292 111.80988 143.45507 113.64497 145.70125 114.6487 147.94742 115.65242 151.54956 117.06477 153.79575 117.79512 156.04193 118.52547 159.64408 119.47559 161.89026 119.91263 164.13645 120.34969 167.73859 120.81374 169.98477 120.94518 172.23096 121.0766 175.8331 121.03772 178.07929 120.86003 180.32547 120.68236 183.9276 120.1465 186.17378 119.66449 188.41997 119.18248 194.26831 117.38597 194.26831 117.38597"/>
<path transform="matrix(1.00003,0,0,-1.00005,2.0964967,163.20134)" stroke-width="1.59404" stroke-linecap="butt" stroke-miterlimit="10" stroke-linejoin="miter" fill="none" stroke="#008000" d="M0 0C0 0 5.84831 4.8587 8.0945 6.72481 10.34068 8.5909 13.94283 11.58353 16.18901 13.44963 18.4352 15.31572 22.03734 18.30835 24.28352 20.17445 26.52971 22.04056 30.13185 25.03317 32.37804 26.89928 34.62422 28.76538 38.22635 31.75798 40.47253 33.62408 42.71872 35.49019 46.32088 38.4828 48.56706 40.3489 50.81325 42.21501 54.41539 45.20763 56.66156 47.07373 58.90775 48.93983 62.50989 51.93245 64.75609 53.79855 67.00229 55.66466 70.60443 58.65727 72.85062 60.52338 75.09679 62.38948 78.69893 65.3821 80.94511 67.2482 83.1913 69.1143 86.79344 72.1069 89.03963 73.973 91.28581 75.83911 94.88794 78.83174 97.13414 80.69785 99.38034 82.56395 102.98248 85.55655 105.22867 87.42265 107.47485 89.28876 111.07698 92.28137 113.32317 94.14748 115.56935 96.01358 119.17151 99.0062 121.4177 100.8723 123.66388 102.7384 127.26602 105.73102 129.51219 107.59712 131.75838 109.46323 135.36052 112.45584 137.60672 114.32195 139.85292 116.18805 143.45507 119.18066 145.70125 121.04677 147.94742 122.91287 151.54956 125.90549 153.79575 127.77159 156.04193 129.6377 159.64408 132.63031 161.89026 134.49642 164.13645 136.36252 167.73859 139.35512 169.98477 141.22122 172.23096 143.08733 175.8331 146.07994 178.07929 147.94605 180.32547 149.81215 183.9276 152.80477 186.17378 154.67087 188.41997 156.53697 194.26831 161.39569 194.26831 161.39569"/>
<path transform="matrix(1.00003,0,0,-1.00005,2.0964967,163.20134)" stroke-width="1.59404" stroke-linecap="butt" stroke-miterlimit="10" stroke-linejoin="miter" fill="none" stroke="#ff8c00" d="M0 53.79865C0 53.79865 5.84831 49.44199 8.0945 48.16333 10.34068 46.88467 13.94283 45.31729 16.18901 44.58298 18.4352 43.84865 22.03734 43.11275 24.28352 42.8708 26.52971 42.62886 30.13185 42.64053 32.37804 42.83917 34.62422 43.0378 38.22635 43.71497 40.47253 44.30246 42.71872 44.88995 46.32088 46.149 48.56706 47.07349 50.81325 47.99796 54.41539 49.75594 56.66156 50.96547 58.90775 52.17502 62.50989 54.34839 64.75609 55.79115 67.00229 57.2339 70.60443 59.73978 72.85062 61.36397 75.09679 62.98816 78.69893 65.74347 80.94511 67.49727 83.1913 69.25105 86.79344 72.1726 89.03963 74.00415 91.28581 75.8357 94.88794 78.84038 97.13414 80.69785 99.38034 82.55531 102.98248 85.55998 105.22867 87.39153 107.47485 89.22308 111.07698 92.14462 113.32317 93.89844 115.56935 95.65224 119.17151 98.40756 121.4177 100.0318 123.66388 101.65602 127.26602 104.16193 129.51219 105.60472 131.75838 107.0475 135.36052 109.2209 137.60672 110.43044 139.85292 111.63997 143.45507 113.39775 145.70125 114.32219 147.94742 115.24661 151.54956 116.5056 153.79575 117.0932 156.04193 117.6808 159.64408 118.3585 161.89026 118.5573 164.13645 118.7561 167.73859 118.76802 169.98477 118.52608 172.23096 118.28413 175.8331 117.54788 178.07929 116.81349 180.32547 116.07912 183.9276 114.51175 186.17378 113.23315 188.41997 111.95456 194.26831 107.59824 194.26831 107.59824"/>
</g>
<path transform="matrix(1.00003,0,0,-1.00005,2.0964967,163.20134)" d="M6.02707 113.51567H58.32637V156.3554H6.02707Z" fill="#ffffff"/>
<path transform="matrix(1.00003,0,0,-1.00005,2.0964967,163.20134)" stroke-width=".3985" stroke-linecap="butt" stroke-miterlimit="10" stroke-linejoin="miter" fill="none" stroke="#000000" d="M6.02707 113.51567H58.32637V156.3554H6.02707Z"/>
<path transform="matrix(1.00003,0,0,-1.00005,11.909798,15.306953)" stroke-width="1.59404" stroke-linecap="butt" stroke-miterlimit="10" stroke-linejoin="miter" fill="none" stroke="#0000ff" d="M0 0C0 0 6.14426 0 8.50412 0 10.86398 0 17.00826 0 17.00826 0"/>
<use data-text="f" xlink:href="#font_4_2" transform="matrix(9.962899,0,0,-9.963098,33.879465,18.296105)"/>
<use data-text="(" xlink:href="#font_2_1" transform="matrix(9.962899,0,0,-9.963098,39.829637,18.296105)"/>
<use data-text="x" xlink:href="#font_4_3" transform="matrix(9.962899,0,0,-9.963098,43.70375,18.296105)"/>
<use data-text=")" xlink:href="#font_2_2" transform="matrix(9.962899,0,0,-9.963098,49.39791,18.296105)"/>
<path transform="matrix(1.00003,0,0,-1.00005,11.909798,28.258606)" stroke-width="1.59404" stroke-linecap="butt" stroke-miterlimit="10" stroke-linejoin="miter" fill="none" stroke="#008000" d="M0 0C0 0 6.14426 0 8.50412 0 10.86398 0 17.00826 0 17.00826 0"/>
<use data-text="T" xlink:href="#font_4_1" transform="matrix(9.962899,0,0,-9.963098,31.708397,31.247757)"/>
<use data-text="1" xlink:href="#font_5_1" transform="matrix(6.9740097,0,0,-6.9741489,37.53057,32.74283)"/>
<use data-text="(" xlink:href="#font_2_1" transform="matrix(9.962899,0,0,-9.963098,41.999704,31.247757)"/>
<use data-text="x" xlink:href="#font_4_3" transform="matrix(9.962899,0,0,-9.963098,45.873819,31.247757)"/>
<use data-text=")" xlink:href="#font_2_2" transform="matrix(9.962899,0,0,-9.963098,51.567987,31.247757)"/>
<path transform="matrix(1.00003,0,0,-1.00005,11.909798,41.211244)" stroke-width="1.59404" stroke-linecap="butt" stroke-miterlimit="10" stroke-linejoin="miter" fill="none" stroke="#ff8c00" d="M0 0C0 0 6.14426 0 8.50412 0 10.86398 0 17.00826 0 17.00826 0"/>
<use data-text="T" xlink:href="#font_4_1" transform="matrix(9.962899,0,0,-9.963098,31.708397,44.200395)"/>
<use data-text="3" xlink:href="#font_5_2" transform="matrix(6.9740097,0,0,-6.9741489,37.53057,45.694475)"/>
<use data-text="(" xlink:href="#font_2_1" transform="matrix(9.962899,0,0,-9.963098,41.999704,44.200395)"/>
<use data-text="x" xlink:href="#font_4_3" transform="matrix(9.962899,0,0,-9.963098,45.873819,44.200395)"/>
<use data-text=")" xlink:href="#font_2_2" transform="matrix(9.962899,0,0,-9.963098,51.567987,44.200395)"/>
</svg>
